# xmcd CD database file
#
# Track frame offsets:
#	150
#	16381
#	32196
#	49721
#	68073
#	81577
#	91848
#	108119
#	123453
#	140400
#	164981
#
# Disc length: 3022 seconds
#
# Revision: 0
# Processed by: cddbd v1.5.2PL0 Copyright (c) Steve Scherf et al.
# Submitted via: CDex 1.51
#
DISCID=950bcc0b
DTITLE=Vietcong Pornsurfers - Restless, Young, Hungry And Free
DYEAR=2011
DGENRE=Blues
TTITLE0=The Flaf Is On Fire
TTITLE1=On Your Own (But Not Alone)
TTITLE2=Give It All
TTITLE3=Come Back
TTITLE4=Getaway Boy
TTITLE5=Don't Need Your Lies
TTITLE6=A Song For Jonas
TTITLE7=Let Me In
TTITLE8=Cunts Don't Play Guitar (bonus demo track)
TTITLE9=Spanish Rose (bonus demo track)
TTITLE10=Data Track
EXTD=YEAR: 2011
EXTT0=
EXTT1=
EXTT2=
EXTT3=
EXTT4=
EXTT5=
EXTT6=
EXTT7=
EXTT8=
EXTT9=
EXTT10=
PLAYORDER=
